<svg width="23" height="23" viewBox="0 0 23 23" fill="none" xmlns="http://www.w3.org/2000/svg">
<g filter="url(#filter0_d_321_9)">
<path d="M11.6666 8.59998L13.5999 10.5333C13.7222 10.6555 13.8777 10.7166 14.0666 10.7166C14.2555 10.7166 14.4111 10.6555 14.5333 10.5333C14.6555 10.4111 14.7166 10.2555 14.7166 10.0666C14.7166 9.87776 14.6555 9.7222 14.5333 9.59998L12.5999 7.66665L14.5333 5.73331C14.6555 5.61109 14.7166 5.45553 14.7166 5.26665C14.7166 5.07776 14.6555 4.9222 14.5333 4.79998C14.4111 4.67776 14.2555 4.61665 14.0666 4.61665C13.8777 4.61665 13.7222 4.67776 13.5999 4.79998L11.6666 6.73331L9.73328 4.79998C9.61106 4.67776 9.4555 4.61665 9.26661 4.61665C9.07772 4.61665 8.92217 4.67776 8.79994 4.79998C8.67772 4.9222 8.61661 5.07776 8.61661 5.26665C8.61661 5.45553 8.67772 5.61109 8.79994 5.73331L10.7333 7.66665L8.79994 9.59998C8.67772 9.7222 8.61661 9.87776 8.61661 10.0666C8.61661 10.2555 8.67772 10.4111 8.79994 10.5333C8.92217 10.6555 9.07772 10.7166 9.26661 10.7166C9.4555 10.7166 9.61106 10.6555 9.73328 10.5333L11.6666 8.59998ZM11.6666 14.3333C10.7444 14.3333 9.87772 14.1582 9.06661 13.808C8.2555 13.4578 7.54994 12.9829 6.94994 12.3833C6.34994 11.7838 5.87505 11.0782 5.52528 10.2666C5.1755 9.4551 5.00039 8.58842 4.99994 7.66665C4.9995 6.74487 5.17461 5.8782 5.52528 5.06665C5.87594 4.2551 6.35083 3.54953 6.94994 2.94998C7.54905 2.35043 8.25461 1.87553 9.06661 1.52531C9.87861 1.17509 10.7453 0.999979 11.6666 0.999979C12.5879 0.999979 13.4546 1.17509 14.2666 1.52531C15.0786 1.87553 15.7842 2.35043 16.3833 2.94998C16.9824 3.54953 17.4575 4.2551 17.8086 5.06665C18.1597 5.8782 18.3346 6.74487 18.3333 7.66665C18.3319 8.58842 18.1568 9.4551 17.8079 10.2666C17.4591 11.0782 16.9842 11.7838 16.3833 12.3833C15.7824 12.9829 15.0768 13.458 14.2666 13.8086C13.4564 14.1593 12.5897 14.3342 11.6666 14.3333ZM11.6666 13C13.1555 13 14.4166 12.4833 15.4499 11.45C16.4833 10.4167 16.9999 9.15553 16.9999 7.66665C16.9999 6.17776 16.4833 4.91664 15.4499 3.88331C14.4166 2.84999 13.1555 2.33331 11.6666 2.33331C10.1777 2.33331 8.91661 2.84999 7.88328 3.88331C6.84994 4.91664 6.33328 6.17776 6.33328 7.66665C6.33328 9.15553 6.84994 10.4167 7.88328 11.45C8.91661 12.4833 10.1777 13 11.6666 13Z" fill="#C4C3C3"/>
<path d="M11.667 0.849609C12.6077 0.849658 13.4947 1.02909 14.3262 1.3877C15.1547 1.74507 15.8762 2.23031 16.4893 2.84375C17.1022 3.45719 17.588 4.1788 17.9463 5.00684C18.3059 5.83806 18.4848 6.72555 18.4834 7.66699C18.482 8.60811 18.3026 9.4952 17.9453 10.3262C17.5892 11.1543 17.104 11.8758 16.4893 12.4893C15.8745 13.1027 15.153 13.5884 14.3262 13.9463C13.4964 14.3054 12.6095 14.4833 11.667 14.4824V14.4834C10.7252 14.4834 9.83754 14.304 9.00684 13.9453C8.17925 13.5879 7.45759 13.1026 6.84375 12.4893C6.22988 11.8758 5.74463 11.1543 5.3877 10.3262C5.02953 9.49517 4.8501 8.60816 4.84961 7.66699C4.84916 6.72562 5.02856 5.838 5.3877 5.00684C5.74552 4.17881 6.23077 3.45718 6.84375 2.84375C7.45676 2.2303 8.17834 1.74508 9.00684 1.3877C9.83838 1.02904 10.7261 0.849609 11.667 0.849609ZM11.667 2.4834C10.2171 2.4834 8.99387 2.98466 7.98926 3.98926C6.98464 4.99386 6.4834 6.21705 6.4834 7.66699C6.48348 9.11672 6.98481 10.3392 7.98926 11.3438C8.99387 12.3484 10.217 12.8496 11.667 12.8496C13.1168 12.8495 14.3392 12.3483 15.3438 11.3438C16.3483 10.3392 16.8495 9.11677 16.8496 7.66699C16.8496 6.21705 16.3484 4.99387 15.3438 3.98926C14.3392 2.98482 13.1167 2.48349 11.667 2.4834ZM14.0664 4.4668C14.291 4.4668 14.4865 4.54124 14.6396 4.69434C14.7925 4.84737 14.8662 5.04219 14.8662 5.2666C14.8662 5.46313 14.8101 5.63731 14.6934 5.78027L14.6396 5.83984L12.8115 7.66602L14.6396 9.49414L14.6934 9.55371C14.8098 9.69654 14.8662 9.87016 14.8662 10.0664C14.8662 10.291 14.7927 10.4866 14.6396 10.6396C14.4865 10.7927 14.291 10.8662 14.0664 10.8662C13.8701 10.8662 13.6965 10.8099 13.5537 10.6934L13.4941 10.6396L11.666 8.81152L9.83887 10.6396C9.68582 10.7925 9.49103 10.8662 9.2666 10.8662C9.04217 10.8662 8.84738 10.7925 8.69434 10.6396C8.54123 10.4865 8.4668 10.291 8.4668 10.0664C8.46685 9.8419 8.54129 9.64719 8.69434 9.49414L10.5205 7.66602L8.69434 5.83984C8.54123 5.68674 8.4668 5.49121 8.4668 5.2666C8.46681 5.04201 8.54124 4.84743 8.69434 4.69434C8.84743 4.54125 9.04201 4.4668 9.2666 4.4668C9.4912 4.4668 9.68577 4.54125 9.83887 4.69434L11.666 6.52051L13.4941 4.69434L13.5537 4.64062C13.6966 4.52395 13.87 4.46684 14.0664 4.4668Z" stroke="black" stroke-width="0.3"/>
</g>
<defs>
<filter id="filter0_d_321_9" x="0.699951" y="0.699951" width="21.9333" height="21.9333" filterUnits="userSpaceOnUse" color-interpolation-filters="sRGB">
<feFlood flood-opacity="0" result="BackgroundImageFix"/>
<feColorMatrix in="SourceAlpha" type="matrix" values="0 0 0 0 0 0 0 0 0 0 0 0 0 0 0 0 0 0 127 0" result="hardAlpha"/>
<feOffset dy="4"/>
<feGaussianBlur stdDeviation="2"/>
<feComposite in2="hardAlpha" operator="out"/>
<feColorMatrix type="matrix" values="0 0 0 0 0 0 0 0 0 0 0 0 0 0 0 0 0 0 0.25 0"/>
<feBlend mode="normal" in2="BackgroundImageFix" result="effect1_dropShadow_321_9"/>
<feBlend mode="normal" in="SourceGraphic" in2="effect1_dropShadow_321_9" result="shape"/>
</filter>
</defs>
</svg>
